<svg width="266" height="57" viewBox="0 0 266 57" fill="none" xmlns="http://www.w3.org/2000/svg">
<g clip-path="url(#clip0_899_17)">
<rect x="87.8145" y="6.34332" width="25.2466" height="43.9071" rx="4.47766" fill="white"/>
<rect y="6.34332" width="84.5212" height="43.9071" rx="4.47766" fill="white"/>
<path d="M130.925 45H125.705V14.2322H130.925L140.858 38.7286L150.791 14.2322H156.094V45H150.875V35.5298C150.875 33.9865 150.875 32.6957 150.875 31.6575C150.875 30.5912 150.889 29.6933 150.917 28.9637C150.945 28.2342 150.973 27.5888 151.002 27.0276C151.03 26.4664 151.086 25.9052 151.17 25.344L143.341 45H138.375L130.588 25.3861C130.728 26.3121 130.812 27.4906 130.84 28.9216C130.897 30.3527 130.925 32.0363 130.925 33.9724V45ZM165.514 45H159.958L171.07 14.2322H176.583L187.695 45H182.013L179.53 37.8868H168.039L165.514 45ZM173.132 23.4078L169.596 33.3411H177.972L174.437 23.4078C174.324 22.9869 174.198 22.566 174.058 22.1451C173.918 21.7242 173.833 21.3595 173.805 21.0508C173.749 21.3314 173.651 21.6962 173.511 22.1451C173.399 22.566 173.272 22.9869 173.132 23.4078ZM196.941 45H191.553V14.2322H203.296C206.776 14.2322 209.484 15.074 211.42 16.7576C213.384 18.4412 214.366 20.7983 214.366 23.8287C214.366 25.8771 213.889 27.6309 212.935 29.09C212.009 30.5211 210.634 31.6154 208.81 32.373L214.661 45H208.768L203.549 33.5094H196.941V45ZM196.941 19.0305V28.7533H203.296C205.008 28.7533 206.341 28.3183 207.295 27.4485C208.249 26.5786 208.726 25.372 208.726 23.8287C208.726 22.2854 208.249 21.1069 207.295 20.2932C206.341 19.4514 205.008 19.0305 203.296 19.0305H196.941ZM243.952 14.2322L223.875 40.0755V32.0363L237.596 14.2322H243.952ZM225.138 14.2322V45H219.75V14.2322H225.138ZM230.02 31.5312L233.472 26.9013L244.078 45H237.849L230.02 31.5312ZM254.119 31.5312C252.407 31.5312 250.878 31.1384 249.531 30.3527C248.184 29.567 247.104 28.5007 246.29 27.1539C245.505 25.807 245.112 24.2917 245.112 22.6081C245.112 20.9245 245.505 19.4093 246.29 18.0624C247.104 16.7155 248.184 15.6493 249.531 14.8636C250.906 14.0779 252.435 13.6851 254.119 13.6851C255.803 13.6851 257.318 14.0779 258.665 14.8636C260.04 15.6212 261.106 16.6735 261.864 18.0203C262.649 19.3672 263.042 20.8965 263.042 22.6081C263.042 24.2917 262.649 25.807 261.864 27.1539C261.106 28.5007 260.054 29.567 258.707 30.3527C257.36 31.1384 255.831 31.5312 254.119 31.5312ZM254.119 29.9318C255.522 29.9318 256.757 29.6231 257.823 29.0058C258.917 28.3604 259.773 27.4906 260.39 26.3962C261.036 25.2738 261.358 24.0111 261.358 22.6081C261.358 21.1771 261.036 19.9144 260.39 18.82C259.773 17.7257 258.917 16.8699 257.823 16.2526C256.757 15.6072 255.522 15.2845 254.119 15.2845C252.716 15.2845 251.467 15.6072 250.373 16.2526C249.279 16.8979 248.409 17.7678 247.763 18.8621C247.118 19.9565 246.795 21.2051 246.795 22.6081C246.795 24.0111 247.118 25.2738 247.763 26.3962C248.409 27.4906 249.279 28.3604 250.373 29.0058C251.467 29.6231 252.716 29.9318 254.119 29.9318ZM252.225 27.4906H250.499V17.4311H254.54C255.662 17.4311 256.56 17.7117 257.234 18.2729C257.907 18.806 258.244 19.5496 258.244 20.5036C258.244 21.149 258.061 21.7383 257.697 22.2714C257.36 22.7765 256.869 23.1693 256.223 23.4499L258.412 27.4906H256.518L254.624 23.8708H252.225V27.4906ZM256.434 20.6299C256.434 19.5917 255.789 19.0726 254.498 19.0726H252.225V22.3135H254.498C255.115 22.3135 255.592 22.1732 255.929 21.8926C256.266 21.5839 256.434 21.163 256.434 20.6299Z" fill="white"/>
</g>
<defs>
<clipPath id="clip0_899_17">
<rect width="265.296" height="57" fill="white"/>
</clipPath>
</defs>
</svg>
